<?xml version="1.0" standalone="no"?>
<!DOCTYPE svg PUBLIC "-//W3C//DTD SVG 20010904//EN"
 "http://www.w3.org/TR/2001/REC-SVG-20010904/DTD/svg10.dtd">
<svg version="1.0" xmlns="http://www.w3.org/2000/svg"
 width="600.000000pt" height="600.000000pt" viewBox="0 0 600.000000 600.000000"
 preserveAspectRatio="xMidYMid meet">
<metadata>
Created by potrace 1.14, written by Peter Selinger 2001-2017
</metadata>
<g transform="translate(0.000000,600.000000) scale(0.100000,-0.100000)"
fill="#000000" stroke="none">
<path d="M840 5953 l64 -48 118 -270 c65 -148 118 -273 118 -276 0 -14 -1028
-1931 -1036 -1930 -5 0 -30 84 -56 188 l-46 188 -1 -1902 -1 -1903 1073 0
1072 0 -82 44 c-82 44 -193 122 -193 136 0 4 26 24 58 45 115 77 210 155 245
202 71 98 110 201 122 325 4 38 11 68 15 68 5 0 23 -17 40 -37 80 -97 77 -235
-10 -517 -17 -55 -29 -101 -27 -103 2 -2 39 65 81 149 83 167 116 273 116 374
0 83 -49 180 -143 280 l-69 74 18 52 c11 34 30 64 55 87 22 19 43 50 49 70 5
20 10 160 10 313 l0 276 -93 80 c-164 141 -327 341 -396 485 -22 45 -56 132
-77 193 l-38 111 18 76 c10 42 21 115 24 161 l7 84 55 -66 c159 -189 457 -248
688 -136 83 40 166 124 208 209 47 96 63 175 64 317 0 114 1 118 25 134 34 22
95 23 128 1 26 -17 27 -20 27 -120 1 -207 46 -341 148 -446 106 -108 243 -157
417 -148 162 8 286 65 391 181 l55 61 -5 -60 c-18 -200 -18 -230 -2 -269 19
-46 19 -47 -50 -198 -82 -181 -197 -352 -342 -508 l-70 -75 -6 -180 c-10 -236
5 -461 34 -520 l21 -43 -25 -36 c-52 -77 -76 -203 -65 -339 10 -117 57 -207
168 -317 96 -95 202 -161 323 -201 40 -13 75 -25 77 -26 18 -12 -152 -149
-249 -202 l-75 -41 911 0 911 0 -8 53 c-8 62 -28 105 -76 165 -19 23 -30 42
-24 42 13 0 150 -134 174 -170 17 -24 17 -23 1 10 -53 111 -115 178 -229 245
-106 63 -135 91 -169 165 -19 41 -26 71 -26 121 0 61 2 67 23 73 12 3 25 6 28
6 3 0 9 -32 13 -72 8 -86 42 -167 82 -195 16 -11 59 -36 95 -56 131 -72 266
-222 304 -338 l17 -49 65 0 66 0 -7 59 c-14 127 -73 283 -128 342 -14 15 -57
47 -96 73 -142 94 -218 186 -210 254 3 26 8 27 233 77 l230 50 3 68 c2 53 0
67 -11 67 -8 0 -101 -20 -207 -45 -106 -25 -195 -44 -196 -42 -2 2 5 31 16 64
28 91 43 225 36 318 -4 53 -1 115 9 185 41 266 -44 499 -213 584 -26 13 -85
36 -132 51 -85 28 -194 78 -203 92 -3 5 8 42 25 83 86 221 88 313 14 560 -26
85 -56 193 -67 240 -11 47 -27 112 -35 145 -9 34 -31 84 -53 115 -34 50 -154
166 -284 276 l-48 40 15 64 c24 100 21 208 -9 296 -14 41 -25 76 -25 79 0 2
120 110 267 240 224 197 269 233 275 218 5 -10 192 -459 418 -998 l410 -980
-1 175 0 175 -338 820 c-186 451 -338 821 -336 822 1 2 151 -6 334 -18 183
-11 335 -19 337 -16 2 2 3 301 2 665 l-3 660 -375 -558 c-206 -308 -379 -558
-384 -557 -10 3 -646 1033 -646 1047 0 9 29 20 340 136 l185 69 -182 3 -182 2
-717 -305 -716 -305 -149 0 c-235 0 -457 -36 -674 -109 -49 -16 -91 -29 -92
-27 -3 2 81 658 92 719 l5 27 -862 0 -861 0 63 -47z m2451 -1347 c52 -13 137
-44 189 -69 52 -24 111 -48 130 -52 119 -23 180 -68 234 -172 20 -39 35 -54
80 -77 48 -24 59 -36 79 -80 12 -28 43 -92 68 -141 57 -110 115 -315 91 -315
-5 0 -34 11 -63 23 -139 61 -343 91 -508 76 -163 -15 -300 -74 -439 -188 l-66
-54 -107 0 -108 1 -63 54 c-35 29 -80 64 -100 77 -21 12 -38 24 -38 26 0 2 16
-1 36 -7 29 -8 39 -6 54 7 17 15 19 15 28 -1 15 -26 23 -1 16 49 -5 35 -12 47
-31 56 -32 15 -33 14 -34 -11 0 -20 -2 -19 -16 9 -20 39 -16 38 -193 74 -246
51 -427 35 -564 -49 l-61 -37 110 -6 c61 -3 98 -6 84 -7 -24 -2 -170 -41 -210
-57 -13 -5 -17 4 -22 57 -7 73 10 149 52 243 40 88 85 133 193 190 76 41 108
66 173 135 200 213 246 243 339 221 99 -24 131 -24 182 -1 119 54 332 65 485
26z m1288 -751 c27 -103 27 -107 -10 -52 -17 26 -35 47 -40 47 -5 0 -9 35 -9
78 l1 77 19 -36 c10 -20 28 -71 39 -114z m-19 -127 c0 -5 -9 -4 -20 2 -11 6
-20 18 -20 27 0 14 2 14 20 -2 11 -10 20 -22 20 -27z m-2087 -52 c163 -45 293
-136 321 -224 22 -71 29 -167 17 -262 -20 -160 -91 -257 -240 -328 -66 -32
-84 -36 -176 -40 -85 -4 -115 -1 -172 16 -123 38 -228 122 -308 246 l-35 55 0
231 0 230 33 20 c45 28 129 59 190 70 78 13 302 5 370 -14z m1375 14 c87 -15
163 -45 235 -94 68 -47 69 -49 52 -161 -4 -27 -9 -59 -10 -70 -2 -11 -5 -36
-9 -55 -3 -19 -10 -61 -15 -93 -13 -77 -52 -146 -133 -232 -107 -115 -221
-165 -373 -165 -136 0 -245 42 -336 131 -55 54 -82 103 -98 180 -13 64 -16
238 -5 284 30 128 157 220 374 270 68 16 234 18 318 5z m857 -144 c33 -23 81
-66 107 -94 66 -70 146 -201 132 -215 -11 -11 -252 138 -302 187 -56 54 -60
69 -32 142 13 33 27 30 95 -20z m-3054 -53 c5 -14 23 -41 38 -59 40 -45 72
-135 78 -219 4 -53 -2 -100 -22 -195 -15 -69 -31 -147 -36 -173 -8 -45 -43
-117 -57 -117 -11 0 -80 112 -122 195 -45 90 -60 160 -60 281 0 112 27 208 72
260 51 58 93 69 109 27z m2753 0 c66 -50 100 -154 100 -303 -1 -170 -33 -261
-130 -369 -54 -60 -58 -58 -68 39 -4 36 -18 129 -31 207 -46 275 -45 323 10
383 13 14 26 36 30 49 6 19 12 22 36 17 17 -3 40 -14 53 -23z m-193 -323 c-8
-20 -9 -12 -6 35 7 105 9 111 12 50 2 -34 -1 -72 -6 -85z m1002 -1232 c144
-66 223 -116 280 -177 65 -69 79 -102 85 -200 l5 -86 -64 63 c-52 51 -86 74
-179 119 -129 61 -144 73 -170 123 -23 45 -81 210 -74 210 3 0 56 -23 117 -52z
m-79 -143 l18 -30 -21 25 c-26 29 -56 85 -65 120 -4 14 6 0 21 -30 16 -30 37
-68 47 -85z m-172 -296 c190 -64 325 -188 388 -356 l21 -57 -32 -73 c-17 -40
-33 -72 -35 -70 -2 1 -8 34 -14 72 -17 105 -62 187 -155 281 -44 44 -109 100
-145 124 -72 48 -110 79 -110 92 0 12 15 10 82 -13z m-758 -639 c143 -68 146
-71 145 -167 0 -43 -6 -96 -13 -118 l-12 -40 -54 1 c-107 2 -181 38 -214 105
-20 40 -15 169 9 227 9 23 21 42 25 42 4 0 55 -23 114 -50z m1152 -5 c-3 -8
-10 -15 -15 -15 -7 0 -6 10 1 26 12 26 25 16 14 -11z m-3489 -63 c45 -76 59
-141 44 -208 -7 -29 -21 -64 -32 -78 -20 -25 -95 -58 -160 -70 l-35 -6 -19 57
c-25 75 -35 303 -14 303 8 0 46 14 84 30 39 16 77 28 85 27 8 -1 29 -26 47
-55z m2403 -335 c11 3 20 2 20 -1 0 -8 -29 -66 -33 -66 -18 2 -132 50 -135 58
-4 13 62 20 100 10 15 -3 36 -4 48 -1z m-2340 -7 c0 -30 -56 -90 -112 -120
-66 -36 -62 -37 -98 32 l-20 38 27 6 c58 12 129 34 143 44 20 13 60 13 60 0z
m2144 -100 c14 -5 47 -12 73 -16 27 -3 51 -9 55 -12 3 -4 -4 -20 -17 -37 l-24
-30 -38 36 c-21 20 -49 43 -63 53 -28 18 -23 20 14 6z"/>
<path d="M2340 3628 c-68 -10 -176 -61 -253 -119 -55 -41 -57 -44 -40 -61 10
-9 36 -26 58 -37 l40 -19 49 54 c86 97 190 132 301 99 97 -28 160 -84 186
-164 17 -52 29 -61 29 -20 0 41 -36 121 -75 167 -69 82 -177 118 -295 100z"/>
<path d="M2400 3501 c-71 -37 -95 -133 -52 -204 59 -94 204 -87 254 13 65 128
-75 259 -202 191z m28 -78 c-2 -10 -10 -18 -18 -18 -8 0 -16 8 -18 18 -2 12 3
17 18 17 15 0 20 -5 18 -17z"/>
<path d="M2160 3235 c-10 -13 -9 -15 9 -15 13 0 43 -12 69 -26 44 -24 45 -24
17 -2 -16 12 -38 31 -47 41 -22 21 -32 21 -48 2z"/>
<path d="M2615 3181 c-11 -19 -108 -43 -169 -43 -34 0 -81 7 -106 16 -56 19
-66 12 -14 -11 46 -20 159 -23 221 -5 36 11 99 51 81 52 -4 0 -9 -4 -13 -9z"/>
<path d="M3539 3629 c-127 -20 -250 -147 -249 -256 l1 -38 28 60 c51 108 134
160 256 159 102 0 183 -47 246 -144 l16 -24 45 27 c53 31 66 54 41 73 -148
116 -270 161 -384 143z"/>
<path d="M3442 3500 c-18 -11 -41 -34 -52 -52 -40 -66 -17 -155 52 -199 26
-16 45 -19 87 -16 48 3 58 8 93 45 34 37 38 47 38 93 0 34 -7 63 -20 84 -38
62 -134 84 -198 45z m156 -77 c-5 -26 -38 -29 -38 -4 0 15 6 21 21 21 14 0 19
-5 17 -17z"/>
<path d="M3772 3230 c-18 -21 -56 -50 -85 -64 -28 -14 -45 -26 -38 -26 18 0
70 28 122 66 26 19 55 34 65 34 18 1 18 1 0 15 -26 20 -26 20 -64 -25z"/>
<path d="M3598 3133 c6 -2 18 -2 25 0 6 3 1 5 -13 5 -14 0 -19 -2 -12 -5z"/>
<path d="M3538 3123 c7 -3 16 -2 19 1 4 3 -2 6 -13 5 -11 0 -14 -3 -6 -6z"/>
<path d="M2480 2464 c0 -18 97 -139 149 -185 151 -137 303 -183 470 -144 127
30 274 128 364 244 l48 61 -53 0 c-29 0 -147 -5 -263 -12 -213 -12 -276 -8
-672 37 -24 2 -43 2 -43 -1z m346 -50 c132 -14 187 -15 353 -7 108 6 197 10
199 8 1 -1 -6 -23 -15 -49 -20 -54 -27 -57 -189 -81 -115 -17 -214 -19 -301
-5 -68 11 -234 57 -244 68 -4 4 -10 27 -14 51 l-7 44 31 -6 c17 -4 102 -14
187 -23z"/>
<path d="M5740 20 c6 -11 13 -20 16 -20 2 0 0 9 -6 20 -6 11 -13 20 -16 20 -2
0 0 -9 6 -20z"/>
</g>
</svg>
